# xmcd
#
# Track frame offsets: 
#        150
#        17006
#        43709
#        54322
#        73751
#        86388
#        106096
#        120706
#        146574
#        164162
#        185477
#        204486
#        220774
#        246509
#        262638
#        291216
#        303076
#        318922
#
# Disc length: 4269 seconds
#
# Revision: 1
# Processed by: cddbd v1.5.2PL0 Copyright (c) Steve Scherf et al.
# Submitted via: ExactAudioCopy v0.99pb4
#
DISCID=fe10ab12
DTITLE=Billy Boy Arnold - Sings Sonny Boy
DYEAR=2008
DGENRE=Blues
TTITLE0=$1,000 Dollar Bill
TTITLE1=Love Me Baby
TTITLE2=Mellow Chick Swing
TTITLE3=New Jail House Blues
TTITLE4=Around This Old Juke Tonight
TTITLE5=Half-A-Pint
TTITLE6=Polly Put The Kettle On
TTITLE7=Decoration Day
TTITLE8=Squeeze Me Tight
TTITLE9=Black Gal Blues
TTITLE10=Collector Man Blues
TTITLE11=Rub-A-Dub
TTITLE12=Good Morning Little Schoolgirl
TTITLE13=Cut That Out
TTITLE14=Sugar Mama
TTITLE15=Tell Me Baby
TTITLE16=Springtime Blues
TTITLE17=Talking
EXTD=
EXTT0=
EXTT1=
EXTT2=
EXTT3=
EXTT4=
EXTT5=
EXTT6=
EXTT7=
EXTT8=
EXTT9=
EXTT10=
EXTT11=
EXTT12=
EXTT13=
EXTT14=
EXTT15=
EXTT16=
EXTT17=
PLAYORDER=
